<svg version="1.1" id="Layer_1" xmlns="http://www.w3.org/2000/svg" xmlns:xlink="http://www.w3.org/1999/xlink" x="0px" y="0px"
	 width="100%" viewBox="0 0 733 733" enable-background="new 0 0 733 733" xml:space="preserve">
<path fill="#FF0844" opacity="1.000000" stroke="none" 
	d="
M398.000000,734.000000 
	C265.333344,734.000000 133.166672,734.000000 1.000000,734.000000 
	C1.000000,489.666656 1.000000,245.333328 1.000000,1.000000 
	C245.333328,1.000000 489.666656,1.000000 734.000000,1.000000 
	C734.000000,245.333328 734.000000,489.666656 734.000000,734.000000 
	C622.166687,734.000000 510.333344,734.000000 398.000000,734.000000 
M328.631348,332.924774 
	C328.631348,332.924774 328.188202,332.912292 328.228912,331.986725 
	C328.234802,265.323792 328.267700,198.660797 328.135773,131.998123 
	C328.131104,129.636703 327.128326,126.653992 325.518036,125.014503 
	C307.535248,106.706032 289.359039,88.587212 271.192017,70.460281 
	C266.380157,65.659012 266.262878,65.721870 261.318268,70.665886 
	C230.560699,101.419762 199.809311,132.179810 169.047684,162.929626 
	C161.676422,170.298035 154.274216,177.635483 147.640915,184.236176 
	C156.951263,193.795135 166.075516,203.163040 176.179550,213.536896 
	C177.386917,211.871338 178.454498,209.920410 179.957230,208.399399 
	C195.417511,192.751175 210.916336,177.140442 226.523727,161.639404 
	C227.689392,160.481689 230.786148,159.246597 231.272522,159.739029 
	C236.196991,164.724823 242.246124,168.252258 242.226074,177.348099 
	C241.898376,325.997467 242.007568,474.647797 241.918320,623.297852 
	C241.915939,627.251648 242.874817,630.167847 245.772156,632.966980 
	C253.680191,640.606873 261.285156,648.560364 269.019989,656.379883 
	C274.265289,661.682617 279.527130,666.968994 284.770935,672.252014 
	C285.589691,671.672668 286.027222,671.444519 286.363403,671.113464 
	C299.060516,658.608276 311.657715,645.999329 324.503937,633.649475 
	C327.551086,630.719971 328.602295,627.719971 328.594635,623.578491 
	C328.479614,561.418945 328.542542,499.259094 328.445465,437.099518 
	C328.439789,433.476990 329.473938,430.907257 332.058563,428.342804 
	C355.481598,405.102722 378.772034,381.729095 402.114960,358.408203 
	C403.318481,357.205750 404.646118,356.127563 406.993591,354.027466 
	C406.993591,357.610992 406.993622,359.710114 406.993622,361.809265 
	C406.993652,436.634247 407.036011,511.459351 406.890137,586.284058 
	C406.881226,590.854431 408.274719,593.952332 411.472809,597.117004 
	C435.282227,620.677185 458.909698,644.421204 482.601898,668.099854 
	C483.978546,669.475708 485.422150,670.784485 486.715149,672.011169 
	C520.500549,638.045044 553.945618,604.421021 587.186646,571.002136 
	C578.608826,562.389404 569.614319,553.358215 559.804810,543.508728 
	C547.957214,555.581360 536.001892,567.763855 523.801208,580.196289 
	C515.242615,571.609253 507.193146,563.171753 498.713196,555.191833 
	C494.997681,551.695374 493.652405,548.089905 493.657440,543.005615 
	C493.792450,406.354309 493.746002,269.702820 493.854340,133.051453 
	C493.857666,128.858704 492.632935,125.958313 489.670715,123.037216 
	C471.635040,105.251869 453.788757,87.274521 435.866974,69.373589 
	C434.626740,68.134819 433.286530,66.996132 433.086334,66.812714 
	C411.369202,88.529694 390.115967,109.782753 368.286011,131.612564 
	C379.684967,142.801285 391.754791,154.523422 403.622070,166.447189 
	C405.193176,168.025803 406.601624,170.624451 406.617950,172.761902 
	C406.820129,199.257416 406.798309,225.755264 406.648376,252.251465 
	C406.637634,254.146988 405.654449,256.510376 404.317566,257.854858 
	C379.290314,283.023315 354.141022,308.070465 328.631348,332.924774 
z"/>
<path fill="#261D29" opacity="1.000000" stroke="none" 
	d="
M329.017273,333.142975 
	C354.141022,308.070465 379.290314,283.023315 404.317566,257.854858 
	C405.654449,256.510376 406.637634,254.146988 406.648376,252.251465 
	C406.798309,225.755264 406.820129,199.257416 406.617950,172.761902 
	C406.601624,170.624451 405.193176,168.025803 403.622070,166.447189 
	C391.754791,154.523422 379.684967,142.801285 368.286011,131.612564 
	C390.115967,109.782753 411.369202,88.529694 433.086334,66.812714 
	C433.286530,66.996132 434.626740,68.134819 435.866974,69.373589 
	C453.788757,87.274521 471.635040,105.251869 489.670715,123.037216 
	C492.632935,125.958313 493.857666,128.858704 493.854340,133.051453 
	C493.746002,269.702820 493.792450,406.354309 493.657440,543.005615 
	C493.652405,548.089905 494.997681,551.695374 498.713196,555.191833 
	C507.193146,563.171753 515.242615,571.609253 523.801208,580.196289 
	C536.001892,567.763855 547.957214,555.581360 559.804810,543.508728 
	C569.614319,553.358215 578.608826,562.389404 587.186646,571.002136 
	C553.945618,604.421021 520.500549,638.045044 486.715149,672.011169 
	C485.422150,670.784485 483.978546,669.475708 482.601898,668.099854 
	C458.909698,644.421204 435.282227,620.677185 411.472809,597.117004 
	C408.274719,593.952332 406.881226,590.854431 406.890137,586.284058 
	C407.036011,511.459351 406.993652,436.634247 406.993622,361.809265 
	C406.993622,359.710114 406.993591,357.610992 406.993591,354.027466 
	C404.646118,356.127563 403.318481,357.205750 402.114960,358.408203 
	C378.772034,381.729095 355.481598,405.102722 332.058563,428.342804 
	C329.473938,430.907257 328.439789,433.476990 328.445465,437.099518 
	C328.542542,499.259094 328.479614,561.418945 328.594635,623.578491 
	C328.602295,627.719971 327.551086,630.719971 324.503937,633.649475 
	C311.657715,645.999329 299.060516,658.608276 286.363403,671.113464 
	C286.027222,671.444519 285.589691,671.672668 284.770935,672.252014 
	C279.527130,666.968994 274.265289,661.682617 269.019989,656.379883 
	C261.285156,648.560364 253.680191,640.606873 245.772156,632.966980 
	C242.874817,630.167847 241.915939,627.251648 241.918320,623.297852 
	C242.007568,474.647797 241.898376,325.997467 242.226074,177.348099 
	C242.246124,168.252258 236.196991,164.724823 231.272522,159.739029 
	C230.786148,159.246597 227.689392,160.481689 226.523727,161.639404 
	C210.916336,177.140442 195.417511,192.751175 179.957230,208.399399 
	C178.454498,209.920410 177.386917,211.871338 176.179550,213.536896 
	C166.075516,203.163040 156.951263,193.795135 147.640915,184.236176 
	C154.274216,177.635483 161.676422,170.298035 169.047684,162.929626 
	C199.809311,132.179810 230.560699,101.419762 261.318268,70.665886 
	C266.262878,65.721870 266.380157,65.659012 271.192017,70.460281 
	C289.359039,88.587212 307.535248,106.706032 325.518036,125.014503 
	C327.128326,126.653992 328.131104,129.636703 328.135773,131.998123 
	C328.267700,198.660797 328.234802,265.323792 328.071289,332.592529 
	C328.025360,333.516296 328.137024,333.834259 328.248718,334.152191 
	C328.504883,333.815765 328.761078,333.479370 329.017273,333.142975 
z"/>
<path fill="#401A2C" opacity="1.000000" stroke="none" 
	d="
M328.824310,333.033875 
	C328.761078,333.479370 328.504883,333.815765 328.248718,334.152191 
	C328.137024,333.834259 328.025360,333.516296 328.050934,333.055328 
	C328.188202,332.912292 328.631348,332.924774 328.824310,333.033875 
z"/>
</svg>